<?xml version="1.0" encoding="utf-8"?>
<!-- Generator: Adobe Illustrator 23.0.1, SVG Export Plug-In . SVG Version: 6.00 Build 0)  -->
<svg version="1.2" baseProfile="tiny" id="Layer_1" xmlns="http://www.w3.org/2000/svg" xmlns:xlink="http://www.w3.org/1999/xlink"
	 x="0px" y="0px" viewBox="0 0 35.9 19.9" xml:space="preserve">
<g>
	<g>
		<g>
			<path fill="#FFFFFF" d="M0,10c0,0.5,0.5,1,1.1,1h33.7c0.6,0,1.1-0.4,1.1-1c0-0.5-0.5-1-1.1-1H1.1C0.5,9,0,9.5,0,10z"/>
		</g>
		<g>
			<path fill="#FFFFFF" d="M1.1,0C0.5,0,0,0.4,0,1c0,0.5,0.5,1,1.1,1h33.7c0.6,0,1.1-0.4,1.1-1c0-0.5-0.5-1-1.1-1H1.1z"/>
		</g>
		<g>
			<path fill="#FFFFFF" d="M0,19c0,0.5,0.5,1,1.1,1h33.7c0.6,0,1.1-0.4,1.1-1c0-0.5-0.5-1-1.1-1H1.1C0.5,18,0,18.4,0,19z"/>
		</g>
	</g>
</g>
</svg>
