<svg version="1.2" baseProfile="tiny" id="Layer_1" xmlns="http://www.w3.org/2000/svg" x="0" y="0" viewBox="0 0 23 20" xml:space="preserve"><g id="Page-1"><g id="Core" transform="translate(-127 -128)"><g id="content-cut" transform="translate(127.5 128)"><path id="Shape" fill="#836651" d="M8 4c0-2.2-1.8-4-4-4S0 1.8 0 4s1.8 4 4 4c.6 0 1.1-.1 1.6-.4L8 10l-2.4 2.4c-.5-.3-1-.4-1.6-.4-2.2 0-4 1.8-4 4s1.8 4 4 4 4-1.8 4-4c0-.6-.1-1.1-.4-1.6L10 12l7 7h4L7.6 5.6c.3-.5.4-1 .4-1.6zM4 6c-1.1 0-2-.9-2-2s.9-2 2-2 2 .9 2 2-.9 2-2 2zm0 12c-1.1 0-2-.9-2-2s.9-2 2-2 2 .9 2 2-.9 2-2 2zm6-8.5c.3 0 .5.2.5.5s-.2.5-.5.5-.5-.2-.5-.5.2-.5.5-.5zM21 1h-4l-6 6 2 2 8-8z"/></g></g></g></svg>